<svg width="14" height="14" viewBox="0 0 14 14" fill="none" xmlns="http://www.w3.org/2000/svg">
<g id="info_i">
<mask id="mask0_650_5689" style="mask-type:alpha" maskUnits="userSpaceOnUse" x="0" y="0" width="14" height="14">
<rect id="Bounding box" width="14" height="14" fill="#D9D9D9"/>
</mask>
<g mask="url(#mask0_650_5689)">
<path id="info_i_2" d="M6.99967 4.08333C6.67884 4.08333 6.40419 3.9691 6.17572 3.74063C5.94724 3.51215 5.83301 3.2375 5.83301 2.91667C5.83301 2.59583 5.94724 2.32118 6.17572 2.09271C6.40419 1.86424 6.67884 1.75 6.99967 1.75C7.32051 1.75 7.59516 1.86424 7.82363 2.09271C8.05211 2.32118 8.16634 2.59583 8.16634 2.91667C8.16634 3.2375 8.05211 3.51215 7.82363 3.74063C7.59516 3.9691 7.32051 4.08333 6.99967 4.08333ZM6.99967 12.25C6.75662 12.25 6.55002 12.1649 6.37988 11.9948C6.20974 11.8247 6.12467 11.6181 6.12467 11.375V6.125C6.12467 5.88194 6.20974 5.67535 6.37988 5.50521C6.55002 5.33507 6.75662 5.25 6.99967 5.25C7.24273 5.25 7.44933 5.33507 7.61947 5.50521C7.78961 5.67535 7.87467 5.88194 7.87467 6.125V11.375C7.87467 11.6181 7.78961 11.8247 7.61947 11.9948C7.44933 12.1649 7.24273 12.25 6.99967 12.25Z" fill="white"/>
</g>
</g>
</svg>
