<svg width="32" height="32" viewBox="0 0 32 32" fill="none" xmlns="http://www.w3.org/2000/svg">
<path opacity="0.8" d="M6.0415 1.83885C7.54066 -0.179958 10.3925 -0.601219 12.4113 0.897942L27.8452 12.359C29.864 13.8582 30.2853 16.7101 28.7861 18.7289C27.2869 20.7477 24.4351 21.169 22.4162 19.6698L6.98241 8.20871C4.9636 6.70955 4.54234 3.85767 6.0415 1.83885Z" fill="white"/>
<path opacity="0.6" d="M6.04162 30.1614C4.54237 28.1427 4.9635 25.2908 6.98224 23.7915L22.4156 12.3297C24.4343 10.8305 27.2862 11.2516 28.7855 13.2703C30.2847 15.2891 29.8636 18.141 27.8448 19.6402L12.4115 31.102C10.3928 32.6013 7.54087 32.1801 6.04162 30.1614Z" fill="white"/>
<path opacity="0.9" d="M27.4469 19.9361C25.917 20.839 23.9317 20.7959 22.416 19.6704L17.4736 16.0002L22.4153 12.3302C23.9325 11.2034 25.9204 11.1614 27.4509 12.067L27.8449 12.3596C29.0256 13.2364 29.6599 14.5759 29.6831 15.9409C29.6957 17.3464 29.0594 18.7385 27.8446 19.6407L27.4469 19.9361Z" fill="white"/>
<circle cx="5.85668" cy="16.1916" r="3.54125" fill="white"/>
</svg>
