<svg width="14" height="14" viewBox="0 0 14 14" fill="none" xmlns="http://www.w3.org/2000/svg">
<g id="Group">
<path id="Vector" d="M6.95494 0.8125C3.78169 0.8125 3.97981 2.18863 3.97981 2.18863L3.98338 3.61425H7.01156V4.04238H2.78056C2.78056 4.04238 0.75 3.812 0.75 7.01381C0.75 10.2157 2.52231 10.1022 2.52231 10.1022H3.58006V8.61637C3.58006 8.61637 3.52306 6.84406 5.32413 6.84406H8.3275C8.3275 6.84406 10.0149 6.87131 10.0149 5.21319V2.47163C10.0149 2.47163 10.2711 0.8125 6.95494 0.8125ZM5.28519 1.77119C5.35675 1.77111 5.42763 1.78515 5.49377 1.81251C5.5599 1.83986 5.61999 1.87999 5.67059 1.93059C5.7212 1.9812 5.76133 2.04129 5.78868 2.10742C5.81603 2.17355 5.83007 2.24443 5.83 2.316C5.83007 2.38756 5.81602 2.45843 5.78866 2.52456C5.76131 2.59068 5.72118 2.65077 5.67057 2.70137C5.61997 2.75196 5.55988 2.79209 5.49375 2.81944C5.42762 2.84678 5.35675 2.86082 5.28519 2.86075C5.21363 2.86082 5.14277 2.84677 5.07664 2.81942C5.01052 2.79206 4.95044 2.75194 4.89984 2.70134C4.84925 2.65075 4.80912 2.59067 4.78177 2.52454C4.75442 2.45842 4.74037 2.38756 4.74044 2.316C4.74036 2.24444 4.7544 2.17357 4.78175 2.10744C4.8091 2.04131 4.84922 1.98122 4.89982 1.93062C4.95042 1.88001 5.0105 1.83988 5.07663 1.81253C5.14276 1.78517 5.21363 1.77112 5.28519 1.77119Z" fill="white"/>
<path id="Vector_2" d="M7.04512 13.2472C10.2184 13.2472 10.0202 11.8712 10.0202 11.8712L10.0167 10.4455H6.98849V10.0174H11.2195C11.2195 10.0174 13.2501 10.2477 13.2501 7.04584C13.2501 3.84397 11.4777 3.95753 11.4777 3.95753H10.42V5.44334C10.42 5.44334 10.477 7.21566 8.67593 7.21566H5.67256C5.67256 7.21566 3.98506 7.18834 3.98506 8.84647V11.5881C3.98506 11.5881 3.72887 13.2472 7.04512 13.2472ZM8.71487 12.2885C8.64331 12.2886 8.57243 12.2746 8.50631 12.2472C8.44018 12.2199 8.38009 12.1797 8.32949 12.1291C8.27888 12.0785 8.23875 12.0185 8.2114 11.9523C8.18404 11.8862 8.16999 11.8153 8.17006 11.7438C8.16998 11.6722 8.18402 11.6013 8.21138 11.5352C8.23873 11.4691 8.27886 11.409 8.32946 11.3584C8.38007 11.3078 8.44016 11.2676 8.50629 11.2403C8.57242 11.2129 8.6433 11.1989 8.71487 11.199C8.78643 11.1989 8.85731 11.2129 8.92344 11.2403C8.98957 11.2677 9.04965 11.3078 9.10026 11.3584C9.15086 11.409 9.19099 11.4691 9.21834 11.5352C9.2457 11.6013 9.25975 11.6722 9.25968 11.7438C9.25974 11.8153 9.24569 11.8862 9.21833 11.9523C9.19097 12.0185 9.15084 12.0785 9.10023 12.1291C9.04963 12.1797 8.98955 12.2198 8.92342 12.2472C8.8573 12.2746 8.78643 12.2886 8.71487 12.2885Z" fill="white"/>
</g>
</svg>
