<svg width="32" height="32" viewBox="0 0 32 32" fill="none" xmlns="http://www.w3.org/2000/svg"> <g clip-path="url(#clip0_1224_8529)"> <path d="M16 32C24.8366 32 32 24.8366 32 16C32 7.16344 24.8366 0 16 0C7.16344 0 0 7.16344 0 16C0 24.8366 7.16344 32 16 32Z" fill="#122B6D"/> <path d="M18.111 4.65771L10.3288 26.0399C10.0621 26.7755 9.24877 27.371 8.51321 27.371H7.79321L15.5777 5.98883C15.8443 5.25327 16.6577 4.65771 17.3932 4.65771H18.1132H18.111Z" fill="#F5F9FF"/> <path d="M21.1354 4.59109L13.3532 25.9733C13.0865 26.7089 12.2732 27.3044 11.5376 27.3044H10.8176L18.6021 5.91998C18.8687 5.18442 19.6821 4.58887 20.4176 4.58887H21.1376L21.1354 4.59109Z" fill="#92B2FC"/> <path d="M24.0622 4.59109L16.2799 25.9733C16.0133 26.7089 15.1999 27.3044 14.4644 27.3044H13.7444L21.5288 5.91998C21.7955 5.18442 22.6088 4.58887 23.3444 4.58887H24.0644L24.0622 4.59109Z" fill="#406FDD"/> </g> <defs> <clipPath id="clip0_1224_8529"> <rect width="32" height="32" fill="white"/> </clipPath> </defs> </svg>